<svg width="48" height="48" viewBox="0 0 48 48" fill="none" xmlns="http://www.w3.org/2000/svg">
<g id="_2680191781984">
<path id="Vector" d="M21.1665 36.6209C23.01 35.0347 25.2632 34.7588 27.5847 34.414C28.1309 34.345 28.6772 34.2761 29.2234 34.1382C33.1836 33.5175 36.1878 32.0692 38.3045 29.7244C40.148 27.6554 41.377 24.2761 41.2405 21.5175C41.1722 19.9313 40.6942 18.552 39.8749 17.5175L45.8151 9.72437L44.8592 9.10368C44.5179 8.89678 44.2447 8.68988 43.9033 8.48298C42.2647 7.31057 40.5577 6.20712 38.3728 6.00023C37.5534 5.93126 36.7341 6.00023 35.983 6.20712C32.1594 7.17264 29.9745 10.483 29.2234 11.8623L30.9304 12.9657C31.6132 11.7933 33.3884 9.03471 36.461 8.27609C37.0755 8.13816 37.69 8.06919 38.3045 8.13816C39.9432 8.27609 41.377 9.24161 42.8792 10.2761L37.8265 16.9657L37.212 17.7933L37.9631 18.483C38.7824 19.2416 39.2604 20.2761 39.3287 21.6554C39.4652 24.1382 38.2362 26.8968 36.9389 28.2761C35.0954 30.2761 32.5008 31.4485 28.9503 32.0692C28.4041 32.1382 27.8578 32.2071 27.3799 32.2761C26.0143 32.483 24.5804 32.6209 23.2831 33.1037C22.1224 33.4485 21.0299 34.0692 19.9375 34.9657C17.8891 36.7588 16.387 39.3795 15.8408 42.1382C13.6558 42.1382 11.4709 42.1382 9.35427 42.1382H8.33009C8.80804 40.6899 9.49083 39.3106 10.2419 38.0692C11.4709 36.1382 13.0413 34.483 14.8166 33.1037H11.6075C10.4467 34.2071 9.42255 35.4485 8.53492 36.8968C7.37418 38.7588 6.48656 40.7588 5.94033 42.9657L5.59894 44.345H9.28599C11.6757 44.345 14.1338 44.345 16.5918 44.345H17.4794L17.616 43.4485C17.9574 40.7588 19.2547 38.345 21.1665 36.6209Z" fill="white"/>
<path id="Vector_2" d="M35.1636 24.8276C35.7781 22.6897 34.8222 20.3448 32.9104 19.1034C30.9986 17.8621 29.0867 16.4828 27.3798 15.1724L7.71548 0L7.44236 2.48276L26.1508 16.8966C27.926 18.2759 29.8378 19.6552 31.8179 20.9655C32.9104 21.6552 33.5249 23.0345 33.1835 24.2069C32.9104 25.2414 31.8179 26.069 30.5889 26.069L3.96014 27.2414L4.84777 29.3103L30.6572 28.2069C32.7738 28.1379 34.6173 26.7586 35.1636 24.8276Z" fill="white"/>
<path id="Vector_3" d="M1.91181 23.7241L27.926 23.5861C28.4723 23.5861 28.8819 23.1034 28.8819 22.5517C28.8819 22.1379 28.6771 21.793 28.3357 21.5861L3.96017 4.89648V7.44821L21.8492 19.4482L0 12.5517L0.204838 14.8275L21.3713 21.5172L1.16074 21.5861C1.09246 21.5861 1.91181 23.7241 1.91181 23.7241Z" fill="white"/>
<path id="Vector_4" d="M38.441 11.1724C38.441 10.5517 37.9631 10 37.3486 10C36.7341 10 36.3244 10.4828 36.3244 11.1724C36.3244 11.7931 36.8024 12.2759 37.3486 12.2759C37.9631 12.3448 38.441 11.7931 38.441 11.1724Z" fill="white"/>
<path id="Vector_5" d="M25.6729 2.13793C28.5406 2.13793 31.34 2.82759 33.8664 4C34.3443 3.7931 34.8223 3.65517 35.3685 3.51724C35.8465 3.37931 36.3927 3.31035 36.9389 3.24138C33.6615 1.17241 29.8379 0 25.7412 0C22.1224 0 18.6402 0.965518 15.6359 2.62069L17.4795 4.06897C19.9375 2.75862 22.7369 2.13793 25.6729 2.13793Z" fill="white"/>
<path id="Vector_6" d="M46.0199 14.0691L44.5861 15.9312C45.542 18.4139 46.0199 21.1036 46.0199 24.0001C46.0199 36.0691 36.8706 45.8622 25.6728 45.8622C23.761 45.8622 21.8492 45.5863 20.1423 45.0346L19.8691 47.1725C21.7127 47.7243 23.6928 48.0001 25.6728 48.0001C37.963 48.0001 48 37.2415 48 24.0001C48 20.4829 47.2489 17.1036 46.0199 14.0691Z" fill="white"/>
</g>
</svg>
