<svg width="38" height="38" viewBox="0 0 38 38" fill="none" xmlns="http://www.w3.org/2000/svg">
<g id="Icons/watch">
<path id="Vector" d="M19 30.0834C25.1212 30.0834 30.0833 25.1212 30.0833 19C30.0833 12.8789 25.1212 7.91669 19 7.91669C12.8788 7.91669 7.91667 12.8789 7.91667 19C7.91667 25.1212 12.8788 30.0834 19 30.0834Z" stroke="#C9DB48" stroke-width="2" stroke-linecap="round" stroke-linejoin="round"/>
<path id="Vector_2" d="M19 14.25V19L21.375 21.375" stroke="#C9DB48" stroke-width="2" stroke-linecap="round" stroke-linejoin="round"/>
<path id="Vector_3" d="M26.1408 27.4708L25.5867 33.535C25.5153 34.3245 25.1505 35.0586 24.5641 35.5921C23.9778 36.1257 23.2127 36.4199 22.42 36.4167H15.5642C14.7714 36.4199 14.0063 36.1257 13.42 35.5921C12.8337 35.0586 12.4688 34.3245 12.3975 33.535L11.8433 27.4708M11.8592 10.5292L12.4133 4.46501C12.4844 3.67821 12.8471 2.94641 13.43 2.41325C14.013 1.88009 14.7742 1.58408 15.5642 1.58334H22.4517C23.2444 1.58012 24.0095 1.87435 24.5958 2.4079C25.1821 2.94144 25.547 3.67549 25.6183 4.46501L26.1725 10.5292" stroke="#C9DB48" stroke-width="2" stroke-linecap="round" stroke-linejoin="round"/>
</g>
</svg>
