<svg width="38" height="38" viewBox="0 0 38 38" fill="none" xmlns="http://www.w3.org/2000/svg">
<g id="Icons/slack">
<path id="Vector" d="M22.9583 15.8334C21.6442 15.8334 20.5833 14.7725 20.5833 13.4584V5.54169C20.5833 4.22752 21.6442 3.16669 22.9583 3.16669C24.2725 3.16669 25.3333 4.22752 25.3333 5.54169V13.4584C25.3333 14.7725 24.2725 15.8334 22.9583 15.8334Z" stroke="#C9DB48" stroke-width="2" stroke-linecap="round" stroke-linejoin="round"/>
<path id="Vector_2" d="M32.4583 15.8333H30.0833V13.4583C30.0833 12.1441 31.1442 11.0833 32.4583 11.0833C33.7725 11.0833 34.8333 12.1441 34.8333 13.4583C34.8333 14.7725 33.7725 15.8333 32.4583 15.8333Z" stroke="#C9DB48" stroke-width="2" stroke-linecap="round" stroke-linejoin="round"/>
<path id="Vector_3" d="M15.0417 22.1667C16.3558 22.1667 17.4167 23.2275 17.4167 24.5417V32.4584C17.4167 33.7725 16.3558 34.8334 15.0417 34.8334C13.7275 34.8334 12.6667 33.7725 12.6667 32.4584V24.5417C12.6667 23.2275 13.7275 22.1667 15.0417 22.1667Z" stroke="#C9DB48" stroke-width="2" stroke-linecap="round" stroke-linejoin="round"/>
<path id="Vector_4" d="M5.54167 22.1667H7.91667V24.5417C7.91667 25.8559 6.85583 26.9167 5.54167 26.9167C4.2275 26.9167 3.16667 25.8559 3.16667 24.5417C3.16667 23.2275 4.2275 22.1667 5.54167 22.1667Z" stroke="#C9DB48" stroke-width="2" stroke-linecap="round" stroke-linejoin="round"/>
<path id="Vector_5" d="M22.1667 22.9583C22.1667 21.6441 23.2275 20.5833 24.5417 20.5833H32.4583C33.7725 20.5833 34.8333 21.6441 34.8333 22.9583C34.8333 24.2725 33.7725 25.3333 32.4583 25.3333H24.5417C23.2275 25.3333 22.1667 24.2725 22.1667 22.9583Z" stroke="#C9DB48" stroke-width="2" stroke-linecap="round" stroke-linejoin="round"/>
<path id="Vector_6" d="M24.5417 30.0833H22.1667V32.4583C22.1667 33.7725 23.2275 34.8333 24.5417 34.8333C25.8558 34.8333 26.9167 33.7725 26.9167 32.4583C26.9167 31.1441 25.8558 30.0833 24.5417 30.0833Z" stroke="#C9DB48" stroke-width="2" stroke-linecap="round" stroke-linejoin="round"/>
<path id="Vector_7" d="M15.8333 15.0417C15.8333 13.7275 14.7725 12.6667 13.4583 12.6667H5.54167C4.2275 12.6667 3.16667 13.7275 3.16667 15.0417C3.16667 16.3559 4.2275 17.4167 5.54167 17.4167H13.4583C14.7725 17.4167 15.8333 16.3559 15.8333 15.0417Z" stroke="#C9DB48" stroke-width="2" stroke-linecap="round" stroke-linejoin="round"/>
<path id="Vector_8" d="M13.4583 7.91669H15.8333V5.54169C15.8333 4.22752 14.7725 3.16669 13.4583 3.16669C12.1442 3.16669 11.0833 4.22752 11.0833 5.54169C11.0833 6.85585 12.1442 7.91669 13.4583 7.91669Z" stroke="#C9DB48" stroke-width="2" stroke-linecap="round" stroke-linejoin="round"/>
</g>
</svg>
