<svg width="12" height="12" viewBox="0 0 12 12" fill="none" xmlns="http://www.w3.org/2000/svg">
<g id="akar-icons:location">
<g id="Group">
<path id="Vector" d="M6.00006 6.5C6.82849 6.5 7.50006 5.82843 7.50006 5C7.50006 4.17157 6.82849 3.5 6.00006 3.5C5.17163 3.5 4.50006 4.17157 4.50006 5C4.50006 5.82843 5.17163 6.5 6.00006 6.5Z" stroke="#1F1F1F" stroke-width="0.8" stroke-linecap="round" stroke-linejoin="round"/>
<path id="Vector_2" d="M6.00006 1C4.9392 1 3.92178 1.42143 3.17163 2.17157C2.42149 2.92172 2.00006 3.93913 2.00006 5C2.00006 5.946 2.20106 6.565 2.75006 7.25L6.00006 11L9.25006 7.25C9.79906 6.565 10.0001 5.946 10.0001 5C10.0001 3.93913 9.57863 2.92172 8.82849 2.17157C8.07834 1.42143 7.06093 1 6.00006 1V1Z" stroke="#1F1F1F" stroke-width="0.8" stroke-linecap="round" stroke-linejoin="round"/>
</g>
</g>
</svg>
