<svg width="72" height="72" viewBox="0 0 72 72" fill="none" xmlns="http://www.w3.org/2000/svg">
<g id="Phosphor Icons / Student">
<path id="Vector" d="M9 18V40.5" stroke="white" stroke-width="3.2" stroke-linecap="round" stroke-linejoin="round"/>
<path id="Vector_2" d="M15.2437 60.75C17.495 57.2969 20.5722 54.4601 24.1966 52.4965C27.8209 50.5329 31.8779 49.5045 36 49.5045C40.1221 49.5045 44.1791 50.5329 47.8034 52.4965C51.4277 54.4601 54.5049 57.2969 56.7562 60.75" stroke="white" stroke-width="3.2" stroke-linecap="round" stroke-linejoin="round"/>
<path id="Vector_3" d="M63 18L36 27L9 18L36 9L63 18Z" stroke="white" stroke-width="3.2" stroke-linecap="round" stroke-linejoin="round"/>
<path id="Vector_4" d="M47.6156 23.1188C49.6796 25.3727 51.0432 28.1783 51.5403 31.1937C52.0374 34.2091 51.6464 37.304 50.4151 40.1011C49.1838 42.8982 47.1653 45.2767 44.6058 46.9465C42.0462 48.6164 39.0561 49.5055 36 49.5055C32.9439 49.5055 29.9538 48.6164 27.3942 46.9465C24.8347 45.2767 22.8162 42.8982 21.5849 40.1011C20.3536 37.304 19.9627 34.2091 20.4597 31.1937C20.9568 28.1783 22.3204 25.3727 24.3844 23.1188" stroke="white" stroke-width="3.2" stroke-linecap="round" stroke-linejoin="round"/>
</g>
</svg>
