<svg width="72" height="72" viewBox="0 0 72 72" fill="none" xmlns="http://www.w3.org/2000/svg">
<g id="Phosphor Icons / YoutubeLogo">
<path id="Vector" d="M45 36L31.5 27V45L45 36Z" stroke="white" stroke-width="3.2" stroke-linecap="round" stroke-linejoin="round"/>
<path id="Vector_2" d="M6.75 36C6.75 44.3812 7.62187 49.275 8.26875 51.8062C8.44712 52.493 8.7844 53.1283 9.2534 53.6608C9.72239 54.1933 10.31 54.6082 10.9688 54.8719C20.3906 58.4719 36 58.3875 36 58.3875C36 58.3875 51.6094 58.4719 61.0312 54.8719C61.69 54.6082 62.2776 54.1933 62.7466 53.6608C63.2156 53.1283 63.5529 52.493 63.7313 51.8062C64.3781 49.275 65.25 44.3812 65.25 36C65.25 27.6187 64.3781 22.725 63.7313 20.1937C63.5529 19.5069 63.2156 18.8716 62.7466 18.3391C62.2776 17.8066 61.69 17.3918 61.0312 17.1281C51.6094 13.5281 36 13.6125 36 13.6125C36 13.6125 20.3906 13.5281 10.9688 17.1281C10.31 17.3918 9.72239 17.8066 9.2534 18.3391C8.7844 18.8716 8.44712 19.5069 8.26875 20.1937C7.62187 22.725 6.75 27.6187 6.75 36Z" stroke="white" stroke-width="3.2" stroke-linecap="round" stroke-linejoin="round"/>
</g>
</svg>
